<svg xmlns="http://www.w3.org/2000/svg" xmlns:xlink="http://www.w3.org/1999/xlink" width="1228" height="711" viewBox="0 0 1228 711"><title>Macbook-Gold</title><defs><linearGradient x1="0%" y1="0%" y2="0%" id="e"><stop stop-opacity="0" offset="0%"/><stop offset="7.182%"/><stop offset="49.709%"/><stop offset="92.818%"/><stop stop-opacity="0" offset="100%"/></linearGradient><filter x="-50%" y="-50%" width="200%" height="200%" filterUnits="objectBoundingBox" id="f"><feGaussianBlur stdDeviation="1" in="SourceGraphic"/></filter><path d="M0 39.004C0 17.464 17.463 0 39.002 0h924.996C985.538 0 1003 17.466 1003 39.004V669c0 14.913-12.087 27-27 27H27c-14.913 0-27-12.085-27-27V39.005z" id="g"/><path d="M0 39.004C0 17.464 17.463 0 39.002 0h924.996C985.538 0 1003 17.466 1003 39.004V669c0 14.913-12.087 27-27 27H27c-14.913 0-27-12.085-27-27V39.005z" id="a"/><filter x="-50%" y="-50%" width="200%" height="200%" filterUnits="objectBoundingBox" id="i"><feMorphology radius="1" in="SourceAlpha" result="shadowSpreadInner1"/><feGaussianBlur stdDeviation="1" in="shadowSpreadInner1" result="shadowBlurInner1"/><feOffset in="shadowBlurInner1" result="shadowOffsetInner1"/><feComposite in="shadowOffsetInner1" in2="SourceAlpha" operator="arithmetic" k2="-1" k3="1" result="shadowInnerInner1"/><feColorMatrix values="0 0 0 0 0.937254902 0 0 0 0 0.909803922 0 0 0 0 0.839215686 0 0 0 1 0" in="shadowInnerInner1"/></filter><mask id="j" x="0" y="0" width="1003" height="696" fill="#fff"><use xlink:href="#a"/></mask><rect id="b" x="4" y="4" width="995" height="688" rx="35"/><filter x="-50%" y="-50%" width="200%" height="200%" filterUnits="objectBoundingBox" id="k"><feMorphology radius="2" in="SourceAlpha" result="shadowSpreadInner1"/><feGaussianBlur stdDeviation="1" in="shadowSpreadInner1" result="shadowBlurInner1"/><feOffset in="shadowBlurInner1" result="shadowOffsetInner1"/><feComposite in="shadowOffsetInner1" in2="SourceAlpha" operator="arithmetic" k2="-1" k3="1" result="shadowInnerInner1"/><feColorMatrix values="0 0 0 0 0.121568627 0 0 0 0 0.125490196 0 0 0 0 0.141176471 0 0 0 1 0" in="shadowInnerInner1"/></filter><mask id="l" x="-1" y="-1" width="997" height="690"><path fill="#fff" d="M3 3h997v690H3z"/><use xlink:href="#b"/></mask><mask id="m" x="0" y="0" width="995" height="688" fill="#fff"><use xlink:href="#b"/></mask><mask id="n" x="0" y="0" width="995" height="688" fill="#fff"><use xlink:href="#b"/></mask><circle id="o" cx="4" cy="4" r="4"/><filter x="-50%" y="-50%" width="200%" height="200%" filterUnits="objectBoundingBox" id="p"><feGaussianBlur stdDeviation=".25" in="SourceAlpha" result="shadowBlurInner1"/><feOffset dy="1" in="shadowBlurInner1" result="shadowOffsetInner1"/><feComposite in="shadowOffsetInner1" in2="SourceAlpha" operator="arithmetic" k2="-1" k3="1" result="shadowInnerInner1"/><feColorMatrix values="0 0 0 0 0 0 0 0 0 0 0 0 0 0 0 0 0 0 0.346297554 0" in="shadowInnerInner1"/></filter><radialGradient cy="100%" fx="50%" fy="100%" id="s"><stop stop-color="#282A29" offset="0%"/><stop stop-color="#282A29" stop-opacity="0" offset="100%"/></radialGradient><radialGradient cy="0%" fx="50%" fy="0%" r="100%" id="t"><stop stop-color="#181C1B" offset="0%"/><stop stop-color="#181C1B" stop-opacity="0" offset="100%"/></radialGradient><circle id="r" cx="4" cy="4" r="2"/><filter x="-50%" y="-50%" width="200%" height="200%" filterUnits="objectBoundingBox" id="q"><feOffset dy="1" in="SourceAlpha" result="shadowOffsetOuter1"/><feGaussianBlur stdDeviation="1" in="shadowOffsetOuter1" result="shadowBlurOuter1"/><feColorMatrix values="0 0 0 0 0 0 0 0 0 0 0 0 0 0 0 0 0 0 0.350147192 0" in="shadowBlurOuter1"/></filter><filter x="-50%" y="-50%" width="200%" height="200%" filterUnits="objectBoundingBox" id="u"><feMorphology radius=".5" in="SourceAlpha" result="shadowSpreadInner1"/><feOffset in="shadowSpreadInner1" result="shadowOffsetInner1"/><feComposite in="shadowOffsetInner1" in2="SourceAlpha" operator="arithmetic" k2="-1" k3="1" result="shadowInnerInner1"/><feColorMatrix values="0 0 0 0 0 0 0 0 0 0 0 0 0 0 0 0 0 0 0.296705163 0" in="shadowInnerInner1"/></filter><path id="v" d="M41 53h922v576H41z"/><path id="c" d="M0 0h985v23H0z"/><linearGradient x1="50%" y1="0%" x2="50%" y2="100%" id="x"><stop stop-color="#AC9782" offset="0%"/><stop stop-color="#AC9782" offset="27.842%"/><stop stop-color="#574539" offset="100%"/></linearGradient><path d="M0 2V0h1227v2c0 5-59 18-167 18H166C66.5 20 0 7 0 2z" id="w"/><path id="A" d="M1.5 6.5h1226V6H.5v.5z"/><filter x="-50%" y="-50%" width="200%" height="200%" filterUnits="objectBoundingBox" id="z"><feOffset dy="1" in="SourceAlpha" result="shadowOffsetOuter1"/><feComposite in="shadowOffsetOuter1" in2="SourceAlpha" operator="out" result="shadowOffsetOuter1"/><feColorMatrix values="0 0 0 0 1 0 0 0 0 1 0 0 0 0 1 0 0 0 0.124009284 0" in="shadowOffsetOuter1"/></filter><linearGradient x1="90.208%" y1="50%" y2="50%" id="C"><stop stop-color="#736356" stop-opacity="0" offset="0%"/><stop stop-color="#736356" offset="100%"/></linearGradient><path d="M0 2V0h1227v2c0 5-59 18-167 18H166C66.5 20 0 7 0 2z" id="B"/><linearGradient x1="90.208%" y1="50%" y2="50%" id="E"><stop stop-color="#736356" stop-opacity="0" offset="0%"/><stop stop-color="#736356" stop-opacity=".75" offset="100%"/></linearGradient><path d="M0 2V0h1227v2c0 5-59 18-167 18H166C66.5 20 0 7 0 2z" id="D"/><path d="M0 2V0h1227v2c0 5-59 18-167 18H166C66.5 20 0 7 0 2z" id="F"/><linearGradient x1="50%" y1="0%" x2="50%" y2="100%" id="I"><stop stop-color="#252120" offset="0%"/><stop stop-color="#383433" offset="100%"/></linearGradient><ellipse id="J" cx="1106.5" cy="13.5" rx="5.5" ry="1.5"/><filter x="-50%" y="-50%" width="200%" height="200%" filterUnits="objectBoundingBox" id="K"><feOffset dy="-2" in="SourceAlpha" result="shadowOffsetInner1"/><feComposite in="shadowOffsetInner1" in2="SourceAlpha" operator="arithmetic" k2="-1" k3="1" result="shadowInnerInner1"/><feColorMatrix values="0 0 0 0 0.450980392 0 0 0 0 0.376470588 0 0 0 0 0.31372549 0 0 0 1 0" in="shadowInnerInner1"/></filter><path d="M463.5 15c3.038 0 5.5-.672 5.5-1.5s-2.462-1.5-5.5-1.5-5.5.672-5.5 1.5 2.462 1.5 5.5 1.5z" id="L"/><filter x="-50%" y="-50%" width="200%" height="200%" filterUnits="objectBoundingBox" id="M"><feOffset dy="-2" in="SourceAlpha" result="shadowOffsetInner1"/><feComposite in="shadowOffsetInner1" in2="SourceAlpha" operator="arithmetic" k2="-1" k3="1" result="shadowInnerInner1"/><feColorMatrix values="0 0 0 0 0.450980392 0 0 0 0 0.376470588 0 0 0 0 0.31372549 0 0 0 1 0" in="shadowInnerInner1"/></filter><ellipse id="N" cx="764.5" cy="13.5" rx="5.5" ry="1.5"/><filter x="-50%" y="-50%" width="200%" height="200%" filterUnits="objectBoundingBox" id="O"><feOffset dy="-2" in="SourceAlpha" result="shadowOffsetInner1"/><feComposite in="shadowOffsetInner1" in2="SourceAlpha" operator="arithmetic" k2="-1" k3="1" result="shadowInnerInner1"/><feColorMatrix values="0 0 0 0 0.450980392 0 0 0 0 0.376470588 0 0 0 0 0.31372549 0 0 0 1 0" in="shadowInnerInner1"/></filter><ellipse id="P" cx="120.5" cy="13.5" rx="5.5" ry="1.5"/><filter x="-50%" y="-50%" width="200%" height="200%" filterUnits="objectBoundingBox" id="Q"><feOffset dy="-2" in="SourceAlpha" result="shadowOffsetInner1"/><feComposite in="shadowOffsetInner1" in2="SourceAlpha" operator="arithmetic" k2="-1" k3="1" result="shadowInnerInner1"/><feColorMatrix values="0 0 0 0 0.450980392 0 0 0 0 0.376470588 0 0 0 0 0.31372549 0 0 0 1 0" in="shadowInnerInner1"/></filter><path d="M0-3c0-.5 1-1 4-1h1219c3 0 4 .5 4 1v5c0 .5-1 1-4 1H4c-3 0-4-.5-4-1v-5z" id="S"/><filter x="-50%" y="-50%" width="200%" height="200%" filterUnits="objectBoundingBox" id="R"><feMorphology radius="1" operator="dilate" in="SourceAlpha" result="shadowSpreadOuter1"/><feOffset dy="1" in="shadowSpreadOuter1" result="shadowOffsetOuter1"/><feGaussianBlur stdDeviation="3" in="shadowOffsetOuter1" result="shadowBlurOuter1"/><feColorMatrix values="0 0 0 0 0.666666667 0 0 0 0 0.584313725 0 0 0 0 0.494117647 0 0 0 1 0" in="shadowBlurOuter1"/></filter><path d="M0 1c0-.5 1-1 4-1h1219c3 0 4 .5 4 1v5c0 .5-1 1-4 1H4c-3 0-4-.5-4-1V1z" id="T"/><linearGradient x1="100%" y1="50.114%" x2="0%" y2="50%" id="U"><stop stop-color="#FDF0E0" offset="0%"/><stop stop-color="#FEF4EB" offset="53.147%"/><stop stop-color="#C4AD9B" offset="76.042%"/><stop stop-color="#655B4F" offset="95.624%"/><stop stop-color="#F8DFCA" offset="100%"/></linearGradient><path d="M0 1c0-.5 1-1 4-1h1219c3 0 4 .5 4 1v5c0 .5-1 1-4 1H4c-3 0-4-.5-4-1V1z" id="W"/><filter x="-50%" y="-50%" width="200%" height="200%" filterUnits="objectBoundingBox" id="X"><feOffset dy="-1" in="SourceAlpha" result="shadowOffsetInner1"/><feComposite in="shadowOffsetInner1" in2="SourceAlpha" operator="arithmetic" k2="-1" k3="1" result="shadowInnerInner1"/><feColorMatrix values="0 0 0 0 1 0 0 0 0 1 0 0 0 0 1 0 0 0 0.0578294837 0" in="shadowInnerInner1"/></filter><path d="M0 0h235v7c0 1-10 2-38 2H38C10 9 0 8 0 7V0z" id="Y"/><filter x="-50%" y="-50%" width="200%" height="200%" filterUnits="objectBoundingBox" id="Z"><feOffset dy="-1" in="SourceAlpha" result="shadowOffsetInner1"/><feComposite in="shadowOffsetInner1" in2="SourceAlpha" operator="arithmetic" k2="-1" k3="1" result="shadowInnerInner1"/><feColorMatrix values="0 0 0 0 1 0 0 0 0 1 0 0 0 0 1 0 0 0 0.248499774 0" in="shadowInnerInner1"/></filter><linearGradient x1="4.463%" y1="50%" x2="0%" y2="50%" id="aa"><stop stop-color="#887469" stop-opacity=".026" offset="0%"/><stop stop-color="#887469" offset="100%"/></linearGradient><linearGradient x1="4.463%" y1="50%" x2="0%" y2="50%" id="ac"><stop stop-color="#887469" stop-opacity="0" offset="0%"/><stop stop-color="#887469" offset="100%"/></linearGradient></defs><g fill="none" fill-rule="evenodd"><path d="M618 708c336.34 0 609 .642 609-3.5S954.34 693 618 693 9 700.358 9 704.5s272.66 3.5 609 3.5z" fill="url(#e)" opacity=".7" filter="url(#f)" transform="translate(.5)"/><g transform="translate(112.5)"><mask id="h" fill="#fff"><use xlink:href="#g"/></mask><use fill="#BDAA97" xlink:href="#g"/><g mask="url(#h)"><use fill="#000" filter="url(#i)" xlink:href="#a"/><use stroke="#F0E3D3" mask="url(#j)" stroke-width="2" xlink:href="#a"/></g><g mask="url(#h)"><use fill="#000" xlink:href="#b"/><use fill="#000" filter="url(#k)" xlink:href="#b"/><use stroke="#615D54" mask="url(#l)" stroke-width="2" xlink:href="#b"/><use stroke="#2A2F32" mask="url(#m)" stroke-width="4" xlink:href="#b"/><use stroke="#0B0A0F" mask="url(#n)" stroke-width="2" xlink:href="#b"/></g><g mask="url(#h)"><g transform="translate(497.5 25)"><use fill="#121413" xlink:href="#o"/><use fill="#000" filter="url(#p)" xlink:href="#o"/></g><g transform="translate(497.5 25)"><use fill="#000" filter="url(#q)" xlink:href="#r"/><use fill="#010302" xlink:href="#r"/><use fill="url(#s)" xlink:href="#r"/><use fill="url(#t)" xlink:href="#r"/><use fill="#000" filter="url(#u)" xlink:href="#r"/></g></g><use fill="#000" xlink:href="#v"/></g><g transform="translate(.5 686)"><mask id="y" fill="#fff"><use xlink:href="#w"/></mask><use fill="#B09C87" xlink:href="#w"/><use fill="url(#x)" xlink:href="#w"/><g mask="url(#y)" fill="#000"><use filter="url(#z)" xlink:href="#A"/><use fill-opacity=".232" xlink:href="#A"/></g><use fill="url(#C)" transform="matrix(-1 0 0 1 1227 0)" xlink:href="#B"/><use fill="url(#E)" xlink:href="#D"/><mask id="H" fill="#fff"><use xlink:href="#F"/></mask><g mask="url(#H)" transform="rotate(-5 1106.5 13.5)"><use fill="url(#I)" xlink:href="#J"/><use fill="#000" filter="url(#K)" xlink:href="#J"/></g><g mask="url(#H)" transform="matrix(-1 0 0 1 927 0)"><use fill="url(#I)" xlink:href="#L"/><use fill="#000" filter="url(#M)" xlink:href="#L"/></g><g mask="url(#H)" transform="matrix(-1 0 0 1 1529 0)"><use fill="url(#I)" xlink:href="#N"/><use fill="#000" filter="url(#O)" xlink:href="#N"/></g><g mask="url(#H)" fill="#000"><use filter="url(#R)" xlink:href="#S"/></g></g><g transform="translate(.5 682)"><mask id="V" fill="#fff"><use xlink:href="#T"/></mask><use fill="#FDF0E0" xlink:href="#T"/><path d="M0 1c0-.5 1-1 4-1h59v7H4c-3 0-4-.5-4-1V1z" fill="url(#U)" mask="url(#V)"/><path d="M1164 1c0-.5 1-1 4-1h59v7h-59c-3 0-4-.5-4-1V1z" fill="url(#U)" mask="url(#V)" transform="matrix(-1 0 0 1 2391 0)"/><use filter="url(#X)" xlink:href="#W" fill="#000"/></g><g transform="translate(496.5 682)"><mask id="ab" fill="#fff"><use xlink:href="#Y"/></mask><use fill="#FFEED9" xlink:href="#Y"/><use fill="#000" filter="url(#Z)" xlink:href="#Y"/><path d="M0 0h235v7c0 1-10 2-38 2H38C10 9 0 8 0 7V0z" fill="url(#aa)" mask="url(#ab)"/><path d="M0 0h235v7c0 1-10 2-38 2H38C10 9 0 8 0 7V0z" fill="url(#ac)" mask="url(#ab)" transform="matrix(-1 0 0 1 235 0)"/></g></g></svg>
